<?xml version="1.0" encoding="UTF-8"?>
<svg width="512px" height="512px" viewBox="0 0 512 512" version="1.1" xmlns="http://www.w3.org/2000/svg">
    <title>DocuIntel Logo</title>
    <g stroke="none" stroke-width="1" fill="none" fill-rule="evenodd">
        <rect fill="#ffe600" x="0" y="0" width="512" height="512" rx="100"></rect>
        <path d="M120,120 L392,120 C405.25,120 416,130.75 416,144 L416,368 C416,381.25 405.25,392 392,392 L120,392 C106.75,392 96,381.25 96,368 L96,144 C96,130.75 106.75,120 120,120 Z" fill="#333333"></path>
        <path d="M144,156 L368,156 C374.6,156 380,161.4 380,168 L380,344 C380,350.6 374.6,356 368,356 L144,356 C137.4,356 132,350.6 132,344 L132,168 C132,161.4 137.4,156 144,156 Z" fill="#ffe600"></path>
        <path d="M180,204 L332,204 C335.3,204 338,206.7 338,210 L338,216 C338,219.3 335.3,222 332,222 L180,222 C176.7,222 174,219.3 174,216 L174,210 C174,206.7 176.7,204 180,204 Z" fill="#333333"></path>
        <path d="M180,252 L332,252 C335.3,252 338,254.7 338,258 L338,264 C338,267.3 335.3,270 332,270 L180,270 C176.7,270 174,267.3 174,264 L174,258 C174,254.7 176.7,252 180,252 Z" fill="#333333"></path>
        <path d="M180,300 L332,300 C335.3,300 338,302.7 338,306 L338,312 C338,315.3 335.3,318 332,318 L180,318 C176.7,318 174,315.3 174,312 L174,306 C174,302.7 176.7,300 180,300 Z" fill="#333333"></path>
    </g>
</svg> 